<mxfile host="app.diagrams.net" agent="Mozilla/5.0 (Windows NT 10.0; Win64; x64; rv:132.0) Gecko/20100101 Firefox/132.0" version="24.8.4">
  <diagram name="Page-1" id="74e2e168-ea6b-b213-b513-2b3c1d86103e">
    <mxGraphModel dx="1035" dy="529" grid="1" gridSize="10" guides="1" tooltips="1" connect="1" arrows="1" fold="1" page="1" pageScale="1" pageWidth="1100" pageHeight="850" background="none" math="0" shadow="0">
      <root>
        <mxCell id="0" />
        <mxCell id="1" parent="0" />
        <mxCell id="77e6c97f196da883-1" value="&lt;font style=&quot;font-size: 9px;&quot;&gt;&lt;b style=&quot;mso-bidi-font-weight:normal&quot;&gt;&lt;i style=&quot;mso-bidi-font-style:normal&quot;&gt;&lt;span style=&quot;font-family: &amp;quot;Times New Roman&amp;quot;, serif;&quot;&gt;Activity Diagram &lt;/span&gt;&lt;/i&gt;&lt;span style=&quot;line-height: 150%; font-family: &amp;quot;Times New Roman&amp;quot;, serif;&quot;&gt;Mengelola &lt;span style=&quot;mso-spacerun:yes&quot;&gt;&amp;nbsp;&lt;/span&gt;Berita&lt;/span&gt;&lt;/b&gt;&lt;/font&gt;" style="swimlane;html=1;childLayout=stackLayout;startSize=20;rounded=0;shadow=0;labelBackgroundColor=none;strokeWidth=1;fontFamily=Verdana;fontSize=8;align=center;" parent="1" vertex="1">
          <mxGeometry x="100" y="40" width="480" height="750" as="geometry" />
        </mxCell>
        <mxCell id="77e6c97f196da883-2" value="Admin" style="swimlane;html=1;startSize=20;" parent="77e6c97f196da883-1" vertex="1">
          <mxGeometry y="20" width="220" height="730" as="geometry" />
        </mxCell>
        <mxCell id="bnH9nUcHbIV2Yk5g0T-l-16" style="edgeStyle=orthogonalEdgeStyle;rounded=0;orthogonalLoop=1;jettySize=auto;html=1;entryX=0.5;entryY=0;entryDx=0;entryDy=0;" edge="1" parent="77e6c97f196da883-2" source="bnH9nUcHbIV2Yk5g0T-l-1" target="bnH9nUcHbIV2Yk5g0T-l-2">
          <mxGeometry relative="1" as="geometry" />
        </mxCell>
        <mxCell id="bnH9nUcHbIV2Yk5g0T-l-1" value="" style="strokeWidth=2;html=1;shape=mxgraph.flowchart.start_2;whiteSpace=wrap;" vertex="1" parent="77e6c97f196da883-2">
          <mxGeometry x="95" y="50" width="30" height="30" as="geometry" />
        </mxCell>
        <mxCell id="bnH9nUcHbIV2Yk5g0T-l-2" value="&lt;font style=&quot;font-size: 10px;&quot;&gt;Pilih Menu Post&lt;/font&gt;" style="rounded=1;whiteSpace=wrap;html=1;fontSize=10;" vertex="1" parent="77e6c97f196da883-2">
          <mxGeometry x="60" y="110" width="100" height="30" as="geometry" />
        </mxCell>
        <mxCell id="bnH9nUcHbIV2Yk5g0T-l-4" value="&lt;div style=&quot;font-size: 10px;&quot;&gt;&lt;font style=&quot;font-size: 10px;&quot;&gt;Melihat halaman&lt;/font&gt;&lt;/div&gt;&lt;div style=&quot;font-size: 10px;&quot;&gt;&lt;font style=&quot;font-size: 10px;&quot;&gt;post&lt;/font&gt;&lt;/div&gt;" style="rounded=1;whiteSpace=wrap;html=1;fontSize=10;" vertex="1" parent="77e6c97f196da883-2">
          <mxGeometry x="60" y="180" width="100" height="30" as="geometry" />
        </mxCell>
        <mxCell id="bnH9nUcHbIV2Yk5g0T-l-5" value="" style="html=1;points=[];perimeter=orthogonalPerimeter;fillColor=strokeColor;rotation=90;" vertex="1" parent="77e6c97f196da883-2">
          <mxGeometry x="105" y="172.5" width="5" height="155" as="geometry" />
        </mxCell>
        <mxCell id="bnH9nUcHbIV2Yk5g0T-l-24" style="edgeStyle=orthogonalEdgeStyle;rounded=0;orthogonalLoop=1;jettySize=auto;html=1;" edge="1" parent="77e6c97f196da883-2" source="bnH9nUcHbIV2Yk5g0T-l-7" target="bnH9nUcHbIV2Yk5g0T-l-11">
          <mxGeometry relative="1" as="geometry" />
        </mxCell>
        <mxCell id="bnH9nUcHbIV2Yk5g0T-l-7" value="&lt;div style=&quot;font-size: 10px;&quot;&gt;&lt;font style=&quot;font-size: 10px;&quot;&gt;Klik tambah&lt;/font&gt;&lt;/div&gt;&lt;div style=&quot;font-size: 10px;&quot;&gt;&lt;font style=&quot;font-size: 10px;&quot;&gt;post&lt;br style=&quot;font-size: 10px;&quot;&gt;&lt;/font&gt;&lt;/div&gt;" style="rounded=1;whiteSpace=wrap;html=1;fontSize=10;" vertex="1" parent="77e6c97f196da883-2">
          <mxGeometry x="12.5" y="280" width="57.5" height="30" as="geometry" />
        </mxCell>
        <mxCell id="bnH9nUcHbIV2Yk5g0T-l-8" value="&lt;div style=&quot;font-size: 10px;&quot;&gt;&lt;font style=&quot;font-size: 10px;&quot;&gt;Klik hapus&lt;/font&gt;&lt;/div&gt;&lt;div style=&quot;font-size: 10px;&quot;&gt;&lt;font style=&quot;font-size: 10px;&quot;&gt;post&lt;br style=&quot;font-size: 10px;&quot;&gt;&lt;/font&gt;&lt;/div&gt;" style="rounded=1;whiteSpace=wrap;html=1;fontSize=10;" vertex="1" parent="77e6c97f196da883-2">
          <mxGeometry x="86.25" y="280" width="53.75" height="30" as="geometry" />
        </mxCell>
        <mxCell id="bnH9nUcHbIV2Yk5g0T-l-9" value="&lt;div style=&quot;font-size: 10px;&quot;&gt;&lt;font style=&quot;font-size: 10px;&quot;&gt;Klik edit&lt;/font&gt;&lt;/div&gt;&lt;div style=&quot;font-size: 10px;&quot;&gt;&lt;font style=&quot;font-size: 10px;&quot;&gt;post&lt;br style=&quot;font-size: 10px;&quot;&gt;&lt;/font&gt;&lt;/div&gt;" style="rounded=1;whiteSpace=wrap;html=1;fontSize=10;" vertex="1" parent="77e6c97f196da883-2">
          <mxGeometry x="160" y="280" width="47.5" height="30" as="geometry" />
        </mxCell>
        <mxCell id="bnH9nUcHbIV2Yk5g0T-l-28" style="edgeStyle=orthogonalEdgeStyle;rounded=0;orthogonalLoop=1;jettySize=auto;html=1;entryX=0.5;entryY=0;entryDx=0;entryDy=0;" edge="1" parent="77e6c97f196da883-2" source="bnH9nUcHbIV2Yk5g0T-l-11" target="bnH9nUcHbIV2Yk5g0T-l-27">
          <mxGeometry relative="1" as="geometry" />
        </mxCell>
        <mxCell id="bnH9nUcHbIV2Yk5g0T-l-11" value="&lt;div style=&quot;font-size: 10px;&quot;&gt;&lt;font style=&quot;font-size: 10px;&quot;&gt;Input tambah&lt;/font&gt;&lt;/div&gt;&lt;div style=&quot;font-size: 10px;&quot;&gt;&lt;font style=&quot;font-size: 10px;&quot;&gt;post&lt;br style=&quot;font-size: 10px;&quot;&gt;&lt;/font&gt;&lt;/div&gt;" style="rounded=1;whiteSpace=wrap;html=1;fontSize=10;" vertex="1" parent="77e6c97f196da883-2">
          <mxGeometry x="12.5" y="350" width="47.5" height="30" as="geometry" />
        </mxCell>
        <mxCell id="bnH9nUcHbIV2Yk5g0T-l-37" style="edgeStyle=orthogonalEdgeStyle;rounded=0;orthogonalLoop=1;jettySize=auto;html=1;entryX=0.5;entryY=0;entryDx=0;entryDy=0;fontSize=10;" edge="1" parent="77e6c97f196da883-2" source="bnH9nUcHbIV2Yk5g0T-l-12" target="bnH9nUcHbIV2Yk5g0T-l-35">
          <mxGeometry relative="1" as="geometry" />
        </mxCell>
        <mxCell id="bnH9nUcHbIV2Yk5g0T-l-12" value="&lt;div style=&quot;font-size: 10px;&quot;&gt;&lt;font style=&quot;font-size: 10px;&quot;&gt;Input edit&lt;/font&gt;&lt;/div&gt;&lt;div style=&quot;font-size: 10px;&quot;&gt;&lt;font style=&quot;font-size: 10px;&quot;&gt;post&lt;br style=&quot;font-size: 10px;&quot;&gt;&lt;/font&gt;&lt;/div&gt;" style="rounded=1;whiteSpace=wrap;html=1;fontSize=10;" vertex="1" parent="77e6c97f196da883-2">
          <mxGeometry x="160" y="350" width="47.5" height="30" as="geometry" />
        </mxCell>
        <mxCell id="bnH9nUcHbIV2Yk5g0T-l-20" value="" style="endArrow=none;html=1;rounded=0;entryX=0.5;entryY=1;entryDx=0;entryDy=0;exitX=0.457;exitY=-0.016;exitDx=0;exitDy=0;exitPerimeter=0;" edge="1" parent="77e6c97f196da883-2" source="bnH9nUcHbIV2Yk5g0T-l-8" target="bnH9nUcHbIV2Yk5g0T-l-4">
          <mxGeometry width="50" height="50" relative="1" as="geometry">
            <mxPoint x="110" y="270" as="sourcePoint" />
            <mxPoint x="170" y="220" as="targetPoint" />
          </mxGeometry>
        </mxCell>
        <mxCell id="bnH9nUcHbIV2Yk5g0T-l-22" value="" style="endArrow=none;html=1;rounded=0;" edge="1" parent="77e6c97f196da883-2">
          <mxGeometry width="50" height="50" relative="1" as="geometry">
            <mxPoint x="184" y="280" as="sourcePoint" />
            <mxPoint x="183.61" y="250" as="targetPoint" />
          </mxGeometry>
        </mxCell>
        <mxCell id="bnH9nUcHbIV2Yk5g0T-l-23" value="" style="endArrow=none;html=1;rounded=0;" edge="1" parent="77e6c97f196da883-2">
          <mxGeometry width="50" height="50" relative="1" as="geometry">
            <mxPoint x="32.110000000000014" y="280" as="sourcePoint" />
            <mxPoint x="32.110000000000014" y="250" as="targetPoint" />
          </mxGeometry>
        </mxCell>
        <mxCell id="bnH9nUcHbIV2Yk5g0T-l-27" value="Klik create" style="rounded=1;whiteSpace=wrap;html=1;fontSize=10;" vertex="1" parent="77e6c97f196da883-2">
          <mxGeometry x="12.5" y="410" width="47.5" height="20" as="geometry" />
        </mxCell>
        <mxCell id="bnH9nUcHbIV2Yk5g0T-l-35" value="Klik save" style="rounded=1;whiteSpace=wrap;html=1;fontSize=10;" vertex="1" parent="77e6c97f196da883-2">
          <mxGeometry x="160" y="410" width="47.5" height="20" as="geometry" />
        </mxCell>
        <mxCell id="77e6c97f196da883-3" value="Sistem" style="swimlane;html=1;startSize=20;" parent="77e6c97f196da883-1" vertex="1">
          <mxGeometry x="220" y="20" width="260" height="730" as="geometry" />
        </mxCell>
        <mxCell id="bnH9nUcHbIV2Yk5g0T-l-3" value="&lt;font style=&quot;font-size: 10px;&quot;&gt;Menampilkan halaman Post&lt;/font&gt;" style="rounded=1;whiteSpace=wrap;html=1;fontSize=10;" vertex="1" parent="77e6c97f196da883-3">
          <mxGeometry x="90" y="110" width="110" height="30" as="geometry" />
        </mxCell>
        <mxCell id="bnH9nUcHbIV2Yk5g0T-l-48" style="edgeStyle=orthogonalEdgeStyle;rounded=0;orthogonalLoop=1;jettySize=auto;html=1;entryX=0.5;entryY=0;entryDx=0;entryDy=0;" edge="1" parent="77e6c97f196da883-3" source="bnH9nUcHbIV2Yk5g0T-l-10" target="bnH9nUcHbIV2Yk5g0T-l-47">
          <mxGeometry relative="1" as="geometry" />
        </mxCell>
        <mxCell id="bnH9nUcHbIV2Yk5g0T-l-10" value="" style="html=1;points=[];perimeter=orthogonalPerimeter;fillColor=strokeColor;rotation=90;" vertex="1" parent="77e6c97f196da883-3">
          <mxGeometry x="137.5" y="520" width="5" height="155" as="geometry" />
        </mxCell>
        <mxCell id="bnH9nUcHbIV2Yk5g0T-l-15" value="&lt;font style=&quot;font-size: 10px;&quot;&gt;Menyimpan post&lt;/font&gt;" style="rounded=1;whiteSpace=wrap;html=1;fontSize=10;" vertex="1" parent="77e6c97f196da883-3">
          <mxGeometry x="95" y="520" width="90" height="30" as="geometry" />
        </mxCell>
        <mxCell id="bnH9nUcHbIV2Yk5g0T-l-30" value="&lt;div style=&quot;font-size: 10px;&quot;&gt;Menampilkan&lt;/div&gt;&lt;div style=&quot;font-size: 10px;&quot;&gt;halaman edit post&lt;br style=&quot;font-size: 10px;&quot;&gt;&lt;/div&gt;" style="rounded=1;whiteSpace=wrap;html=1;fontSize=10;" vertex="1" parent="77e6c97f196da883-3">
          <mxGeometry x="30" y="320" width="90" height="30" as="geometry" />
        </mxCell>
        <mxCell id="bnH9nUcHbIV2Yk5g0T-l-42" style="edgeStyle=orthogonalEdgeStyle;rounded=0;orthogonalLoop=1;jettySize=auto;html=1;entryX=1;entryY=0.5;entryDx=0;entryDy=0;" edge="1" parent="77e6c97f196da883-3" source="bnH9nUcHbIV2Yk5g0T-l-40" target="bnH9nUcHbIV2Yk5g0T-l-15">
          <mxGeometry relative="1" as="geometry" />
        </mxCell>
        <mxCell id="bnH9nUcHbIV2Yk5g0T-l-43" value="Yes" style="edgeLabel;html=1;align=center;verticalAlign=middle;resizable=0;points=[];" vertex="1" connectable="0" parent="bnH9nUcHbIV2Yk5g0T-l-42">
          <mxGeometry x="-0.4462" relative="1" as="geometry">
            <mxPoint as="offset" />
          </mxGeometry>
        </mxCell>
        <mxCell id="bnH9nUcHbIV2Yk5g0T-l-40" value="Pilihan" style="rhombus;whiteSpace=wrap;html=1;" vertex="1" parent="77e6c97f196da883-3">
          <mxGeometry x="170" y="420" width="70" height="70" as="geometry" />
        </mxCell>
        <mxCell id="bnH9nUcHbIV2Yk5g0T-l-46" style="edgeStyle=orthogonalEdgeStyle;rounded=0;orthogonalLoop=1;jettySize=auto;html=1;entryX=0;entryY=0.496;entryDx=0;entryDy=0;entryPerimeter=0;" edge="1" parent="77e6c97f196da883-3" source="bnH9nUcHbIV2Yk5g0T-l-15" target="bnH9nUcHbIV2Yk5g0T-l-10">
          <mxGeometry relative="1" as="geometry" />
        </mxCell>
        <mxCell id="bnH9nUcHbIV2Yk5g0T-l-47" value="" style="ellipse;shape=doubleEllipse;html=1;dashed=0;whiteSpace=wrap;aspect=fixed;" vertex="1" parent="77e6c97f196da883-3">
          <mxGeometry x="110" y="640" width="60" height="60" as="geometry" />
        </mxCell>
        <mxCell id="bnH9nUcHbIV2Yk5g0T-l-17" style="edgeStyle=orthogonalEdgeStyle;rounded=0;orthogonalLoop=1;jettySize=auto;html=1;entryX=0;entryY=0.5;entryDx=0;entryDy=0;" edge="1" parent="77e6c97f196da883-1" source="bnH9nUcHbIV2Yk5g0T-l-2" target="bnH9nUcHbIV2Yk5g0T-l-3">
          <mxGeometry relative="1" as="geometry" />
        </mxCell>
        <mxCell id="bnH9nUcHbIV2Yk5g0T-l-18" style="edgeStyle=orthogonalEdgeStyle;rounded=0;orthogonalLoop=1;jettySize=auto;html=1;entryX=0.504;entryY=0.071;entryDx=0;entryDy=0;entryPerimeter=0;" edge="1" parent="77e6c97f196da883-1" source="bnH9nUcHbIV2Yk5g0T-l-3" target="bnH9nUcHbIV2Yk5g0T-l-4">
          <mxGeometry relative="1" as="geometry">
            <Array as="points">
              <mxPoint x="380" y="180" />
              <mxPoint x="110" y="180" />
              <mxPoint x="110" y="190" />
              <mxPoint x="110" y="190" />
            </Array>
          </mxGeometry>
        </mxCell>
        <mxCell id="bnH9nUcHbIV2Yk5g0T-l-29" style="edgeStyle=orthogonalEdgeStyle;rounded=0;orthogonalLoop=1;jettySize=auto;html=1;entryX=0.011;entryY=0.526;entryDx=0;entryDy=0;entryPerimeter=0;" edge="1" parent="77e6c97f196da883-1" source="bnH9nUcHbIV2Yk5g0T-l-27" target="bnH9nUcHbIV2Yk5g0T-l-15">
          <mxGeometry relative="1" as="geometry">
            <Array as="points">
              <mxPoint x="36" y="555" />
              <mxPoint x="250" y="555" />
            </Array>
          </mxGeometry>
        </mxCell>
        <mxCell id="bnH9nUcHbIV2Yk5g0T-l-32" style="edgeStyle=orthogonalEdgeStyle;rounded=0;orthogonalLoop=1;jettySize=auto;html=1;entryX=0.5;entryY=0;entryDx=0;entryDy=0;" edge="1" parent="77e6c97f196da883-1" source="bnH9nUcHbIV2Yk5g0T-l-9" target="bnH9nUcHbIV2Yk5g0T-l-30">
          <mxGeometry relative="1" as="geometry">
            <mxPoint x="380" y="315" as="targetPoint" />
          </mxGeometry>
        </mxCell>
        <mxCell id="bnH9nUcHbIV2Yk5g0T-l-33" style="edgeStyle=orthogonalEdgeStyle;rounded=0;orthogonalLoop=1;jettySize=auto;html=1;entryX=0.973;entryY=0.613;entryDx=0;entryDy=0;entryPerimeter=0;" edge="1" parent="77e6c97f196da883-1" source="bnH9nUcHbIV2Yk5g0T-l-30" target="bnH9nUcHbIV2Yk5g0T-l-12">
          <mxGeometry relative="1" as="geometry">
            <Array as="points">
              <mxPoint x="300" y="388" />
            </Array>
          </mxGeometry>
        </mxCell>
        <mxCell id="bnH9nUcHbIV2Yk5g0T-l-38" style="edgeStyle=orthogonalEdgeStyle;rounded=0;orthogonalLoop=1;jettySize=auto;html=1;entryX=0.5;entryY=0;entryDx=0;entryDy=0;" edge="1" parent="77e6c97f196da883-1" source="bnH9nUcHbIV2Yk5g0T-l-35" target="bnH9nUcHbIV2Yk5g0T-l-15">
          <mxGeometry relative="1" as="geometry">
            <Array as="points">
              <mxPoint x="184" y="520" />
              <mxPoint x="360" y="520" />
            </Array>
          </mxGeometry>
        </mxCell>
        <mxCell id="bnH9nUcHbIV2Yk5g0T-l-41" style="edgeStyle=orthogonalEdgeStyle;rounded=0;orthogonalLoop=1;jettySize=auto;html=1;" edge="1" parent="77e6c97f196da883-1" source="bnH9nUcHbIV2Yk5g0T-l-8">
          <mxGeometry relative="1" as="geometry">
            <mxPoint x="390" y="480" as="targetPoint" />
            <Array as="points">
              <mxPoint x="110" y="480" />
            </Array>
          </mxGeometry>
        </mxCell>
        <mxCell id="bnH9nUcHbIV2Yk5g0T-l-44" style="edgeStyle=orthogonalEdgeStyle;rounded=0;orthogonalLoop=1;jettySize=auto;html=1;entryX=1;entryY=0.5;entryDx=0;entryDy=0;" edge="1" parent="77e6c97f196da883-1" source="bnH9nUcHbIV2Yk5g0T-l-40" target="bnH9nUcHbIV2Yk5g0T-l-4">
          <mxGeometry relative="1" as="geometry">
            <Array as="points">
              <mxPoint x="425" y="215" />
            </Array>
          </mxGeometry>
        </mxCell>
        <mxCell id="bnH9nUcHbIV2Yk5g0T-l-45" value="Tidak" style="edgeLabel;html=1;align=center;verticalAlign=middle;resizable=0;points=[];" vertex="1" connectable="0" parent="bnH9nUcHbIV2Yk5g0T-l-44">
          <mxGeometry x="-0.4206" y="1" relative="1" as="geometry">
            <mxPoint as="offset" />
          </mxGeometry>
        </mxCell>
      </root>
    </mxGraphModel>
  </diagram>
</mxfile>
